<svg width="20" height="20" viewBox="0 0 20 20" fill="none" xmlns="http://www.w3.org/2000/svg">
<path d="M10.0848 12.2364C9.09408 13.2317 7.90527 14.4261 6.91455 15.4214C5.52755 16.8149 4.33869 18.0093 2.95168 19.4028C2.15911 20.1991 1.16825 20.1991 0.573815 19.4028C-0.0206147 18.8056 -0.0206147 17.6113 0.573815 17.0141C2.75339 14.8243 4.93307 12.6345 7.11264 10.4447C7.31079 10.2456 7.31069 10.2457 7.50883 10.0467C7.31069 9.8476 7.31079 9.84746 7.11264 9.64839C4.93307 7.45863 2.75339 5.26902 0.573815 3.07927C-0.416901 2.08393 -0.0204696 0.690399 0.970247 0.292262C1.56468 0.0931934 2.35725 0.0930961 2.95168 0.690302C5.13126 2.88006 7.31069 5.06991 9.49027 7.25966C9.68841 7.45873 9.68856 7.45863 9.8867 7.6577C10.0848 7.45863 10.0847 7.45873 10.2829 7.25966C12.4625 5.06991 14.6421 2.8801 17.0198 0.491282C18.0105 -0.304992 19.3976 -0.105778 19.7939 0.889565C19.992 1.68584 19.9919 2.28304 19.3974 2.88025C17.2179 5.07 15.0384 7.25961 12.8589 9.44937C12.6607 9.64844 12.6606 9.64858 12.4624 9.84765C12.6606 10.0467 12.6607 10.0466 12.8589 10.2457C15.0384 12.4354 17.2179 14.6253 19.3974 16.815C19.9919 17.4123 20.1902 18.2085 19.7939 18.8057C19.3976 19.4029 18.8031 19.8009 18.0105 19.6018C17.6142 19.4027 17.218 19.2038 17.0198 19.0048C14.8402 16.815 12.6606 14.6251 10.481 12.4354C10.2828 12.6345 10.0848 12.4354 10.0848 12.2364Z" fill="white"/>
</svg>
