<svg width="24" height="23" viewBox="0 0 24 23" fill="none" xmlns="http://www.w3.org/2000/svg">
<path d="M23.1659 8.91261C23.4099 8.91261 23.6072 8.71525 23.6072 8.47124V6.8413C23.6072 6.59729 23.4099 6.39993 23.1659 6.39993H16.2672V5.24857C16.7798 5.06004 17.1468 4.56886 17.1468 3.99192V1.33989C17.1468 0.6009 16.5459 0 15.8069 0H7.80035C7.06136 0 6.46046 0.6009 6.46046 1.33989V3.99192C6.46046 4.56633 6.82491 5.05626 7.33438 5.24668V6.40056H0.441374C0.197357 6.40056 0 6.59792 0 6.84194V8.47187C0 8.71589 0.197357 8.91324 0.441374 8.91324H1.52716V11.7557C1.52716 11.7727 1.52842 11.7891 1.53031 11.8055V21.2717H0.441374C0.197357 21.2717 0 21.4691 0 21.7131C0 21.9571 0.197357 22.1545 0.441374 22.1545H23.1659C23.4099 22.1545 23.6072 21.9571 23.6072 21.7131C23.6072 21.4691 23.4099 21.2717 23.1659 21.2717H22.0769V11.7557C22.0769 11.7387 22.0757 11.7223 22.0738 11.7059V8.91387H23.1659V8.91261ZM14.4588 5.3318V6.39993H9.1415V5.3318H14.4588ZM15.0893 6.39993V5.3318H15.636V6.39993H15.0893ZM7.34321 1.33989C7.34321 1.08767 7.54813 0.882749 7.80035 0.882749H15.8069C16.0591 0.882749 16.264 1.08767 16.264 1.33989V3.99192C16.264 4.24413 16.0591 4.44905 15.8069 4.44905H7.80035C7.54813 4.44905 7.34321 4.24413 7.34321 3.99192V1.33989ZM7.96492 5.3318H8.51159V6.39993H7.96492V5.3318ZM0.882749 7.28268H22.7245V8.02986H0.882749V7.28268ZM2.41306 21.2705V12.1958H3.13691V21.2705H2.41306ZM7.33438 12.1958V12.9575H5.69562C5.5216 12.9575 5.38035 13.0987 5.38035 13.2728V14.9027C5.38035 15.0767 5.5216 15.218 5.69562 15.218H6.57459V21.2711H4.01966V12.1964H7.33375L7.33438 12.1958ZM7.20512 21.2705V15.2173H7.7518V21.2705H7.20512ZM7.96492 12.1958H8.51159V12.9575H7.96492V12.1958ZM7.64965 13.588H17.597V14.5874H6.01089V13.588H7.64965ZM15.09 12.1958H15.6366V12.9575H15.09V12.1958ZM8.38296 15.2173H15.2135V21.2705H8.38296V15.2173ZM15.8441 21.2705V15.2173H16.3908V21.2705H15.8441ZM17.0213 15.2173H17.9129C18.0869 15.2173 18.2281 15.0761 18.2281 14.9021V13.2721C18.2281 13.0981 18.0869 12.9569 17.9129 12.9569H16.2678V12.1952H19.5882V21.2698H17.0213V15.2167V15.2173ZM14.4594 12.9569H9.14213V12.1952H14.4594V12.9569ZM20.4703 21.2698V12.1952H21.1942V21.2698H20.4703ZM21.1916 11.3124H2.4099V8.91135H21.1916V11.3124Z" fill="#3090F6"/>
</svg>
