<svg width="24" height="17" viewBox="0 0 24 17" fill="none" xmlns="http://www.w3.org/2000/svg">
<path d="M20.9472 10.7577H3.04961C1.87638 10.7577 0.921875 9.80322 0.921875 8.62998V2.12774C0.921875 0.954507 1.87638 0 3.04961 0H20.948C22.1212 0 23.0757 0.954507 23.0757 2.12774V8.62998C23.0757 9.80322 22.1212 10.7577 20.948 10.7577H20.9472ZM3.04961 1.08203C2.47305 1.08203 2.00391 1.55117 2.00391 2.12774V8.62998C2.00391 9.20655 2.47305 9.67569 3.04961 9.67569H20.948C21.5245 9.67569 21.9937 9.20655 21.9937 8.62998V2.12774C21.9937 1.55117 21.5245 1.08203 20.948 1.08203H3.04961Z" fill="#3090F6"/>
<path d="M20.1153 8.30859H3.88477C3.58566 8.30859 3.34375 8.06668 3.34375 7.76758C3.34375 7.46847 3.58566 7.22656 3.88477 7.22656H20.1153C20.4144 7.22656 20.6563 7.46847 20.6563 7.76758C20.6563 8.06668 20.4144 8.30859 20.1153 8.30859Z" fill="#3090F6"/>
<path d="M19.8379 6.22949C19.5388 6.22949 19.2969 5.98758 19.2969 5.68848V5.14746C19.2969 4.84836 19.5388 4.60645 19.8379 4.60645C20.137 4.60645 20.3789 4.84836 20.3789 5.14746V5.68848C20.3789 5.98758 20.137 6.22949 19.8379 6.22949Z" fill="#3090F6"/>
<path d="M19.8379 4.06543C19.5388 4.06543 19.2969 3.82352 19.2969 3.52442V2.9834C19.2969 2.68429 19.5388 2.44238 19.8379 2.44238C20.137 2.44238 20.3789 2.68429 20.3789 2.9834V3.52442C20.3789 3.82352 20.137 4.06543 19.8379 4.06543Z" fill="#3090F6"/>
<path d="M18.2479 16.7937C18.0702 16.7937 17.897 16.7064 17.7935 16.5464C17.6312 16.2952 17.7031 15.9605 17.9535 15.7982C18.098 15.7047 18.0323 15.2889 18.0083 15.1637C17.9218 14.7085 17.7038 14.1744 17.5292 13.7447C17.4789 13.621 17.4318 13.5059 17.3916 13.4023C17.111 12.6766 17.2579 12.1796 17.431 11.8906C17.5964 11.6139 17.8607 11.4152 18.1034 11.3851C18.4002 11.348 18.6699 11.559 18.707 11.855C18.7379 12.1031 18.5957 12.3326 18.3747 12.4223C18.3198 12.4857 18.2688 12.6696 18.401 13.0105C18.4388 13.1086 18.4837 13.2176 18.5316 13.3351C18.9659 14.3993 19.6213 16.0069 18.5424 16.7056C18.452 16.7643 18.35 16.7922 18.2487 16.7922L18.2479 16.7937Z" fill="#3090F6"/>
<path d="M15.162 16.7937C14.9842 16.7937 14.8111 16.7064 14.7075 16.5464C14.5452 16.2952 14.6171 15.9605 14.8675 15.7982C15.0121 15.7047 14.9464 15.2889 14.9224 15.1637C14.8358 14.7085 14.6179 14.1744 14.4432 13.7447C14.393 13.621 14.3458 13.5059 14.3056 13.4023C14.0251 12.6766 14.1719 12.1796 14.3451 11.8906C14.5105 11.6139 14.7748 11.4152 15.0175 11.3851C15.3135 11.348 15.584 11.559 15.6211 11.855C15.652 12.1031 15.5098 12.3326 15.2887 12.4223C15.2339 12.4857 15.1829 12.6696 15.315 13.0105C15.3529 13.1086 15.3977 13.2176 15.4456 13.3351C15.88 14.3993 16.5354 16.0069 15.4565 16.7056C15.366 16.7643 15.264 16.7922 15.1628 16.7922L15.162 16.7937Z" fill="#3090F6"/>
<path d="M12.0682 16.7937C11.8905 16.7937 11.7174 16.7064 11.6138 16.5464C11.4515 16.2952 11.5234 15.9605 11.7738 15.7982C11.9183 15.7047 11.8526 15.2889 11.8287 15.1637C11.7421 14.7085 11.5241 14.1744 11.3495 13.7447C11.2992 13.621 11.2521 13.5059 11.2119 13.4023C10.9313 12.6766 11.0782 12.1796 11.2513 11.8906C11.4167 11.6139 11.681 11.4152 11.9237 11.3851C12.2205 11.348 12.4902 11.559 12.5273 11.855C12.5583 12.1031 12.416 12.3326 12.195 12.4223C12.1401 12.4857 12.0891 12.6696 12.2213 13.0105C12.2591 13.1086 12.304 13.2176 12.3519 13.3351C12.7863 14.3993 13.4417 16.0069 12.3627 16.7056C12.2723 16.7643 12.1703 16.7922 12.069 16.7922L12.0682 16.7937Z" fill="#3090F6"/>
<path d="M8.9745 16.7937C8.79673 16.7937 8.62361 16.7064 8.52004 16.5464C8.35774 16.2952 8.42962 15.9605 8.68003 15.7982C8.82456 15.7047 8.75886 15.2889 8.7349 15.1637C8.64834 14.7085 8.43039 14.1744 8.25572 13.7447C8.20548 13.621 8.15833 13.5059 8.11815 13.4023C7.83759 12.6766 7.98444 12.1796 8.15756 11.8906C8.32296 11.6139 8.58728 11.4152 8.82997 11.3851C9.12675 11.348 9.39649 11.559 9.43359 11.855C9.4645 12.1031 9.32229 12.3326 9.10125 12.4223C9.04637 12.4857 8.99536 12.6696 9.12753 13.0105C9.1654 13.1086 9.21023 13.2176 9.25814 13.3351C9.6925 14.3993 10.3479 16.0069 9.26896 16.7056C9.17854 16.7643 9.07652 16.7922 8.97527 16.7922L8.9745 16.7937Z" fill="#3090F6"/>
<path d="M5.88856 16.7937C5.7108 16.7937 5.53767 16.7064 5.43411 16.5464C5.2718 16.2952 5.34368 15.9605 5.59409 15.7982C5.73862 15.7047 5.67293 15.2889 5.64897 15.1637C5.5624 14.7085 5.34445 14.1744 5.16978 13.7447C5.11954 13.621 5.0724 13.5059 5.03221 13.4023C4.75165 12.6766 4.8985 12.1796 5.07162 11.8906C5.23702 11.6139 5.50135 11.4152 5.74403 11.3851C6.04004 11.348 6.31055 11.559 6.34765 11.855C6.37857 12.1031 6.23636 12.3326 6.01531 12.4223C5.96044 12.4857 5.90943 12.6696 6.04159 13.0105C6.07946 13.1086 6.12429 13.2176 6.17221 13.3351C6.60657 14.3993 7.26197 16.0069 6.18303 16.7056C6.0926 16.7643 5.99058 16.7922 5.88933 16.7922L5.88856 16.7937Z" fill="#3090F6"/>
</svg>
