<svg width="24" height="14" viewBox="0 0 24 14" fill="none" xmlns="http://www.w3.org/2000/svg">
<path d="M20.8315 0H3.16605C1.92865 0 0.921875 1.00677 0.921875 2.24417V11.4409C0.921875 12.6783 1.92865 13.685 3.16605 13.685H20.8315C22.069 13.685 23.0757 12.6783 23.0757 11.4409V2.24417C23.0757 1.00677 22.069 0 20.8315 0ZM3.16605 0.981417H20.8315C21.5275 0.981417 22.0943 1.54818 22.0943 2.24417V3.38425H1.90329V2.24417C1.90329 1.54818 2.47006 0.981417 3.16605 0.981417ZM20.8315 12.7036H3.16605C2.47006 12.7036 1.90329 12.1369 1.90329 11.4409V6.45772H22.0943V11.4409C22.0943 12.1369 21.5275 12.7036 20.8315 12.7036Z" fill="#3090F6"/>
</svg>
