<svg width="24" height="23" viewBox="0 0 24 23" fill="none" xmlns="http://www.w3.org/2000/svg">
<path d="M18.3488 5.07977C18.1352 3.66652 17.4218 2.37675 16.3383 1.44467C15.2547 0.512583 13.8728 0 12.4435 0C11.0142 0 9.63228 0.512583 8.54871 1.44467C7.46515 2.37675 6.7518 3.66652 6.53818 5.07977C5.73935 5.12741 4.95824 5.33512 4.24126 5.69056C3.52428 6.046 2.88605 6.54192 2.36448 7.14885C1.84292 7.75579 1.44864 8.46136 1.20511 9.22366C0.961579 9.98595 0.873749 10.7894 0.94683 11.5863C1.01991 12.3832 1.25242 13.1573 1.63054 13.8626C2.00865 14.5679 2.52467 15.19 3.14793 15.6919C3.77118 16.1939 4.48896 16.5655 5.25863 16.7846C6.0283 17.0037 6.83415 17.0659 7.62832 16.9674C7.87018 17.2237 8.13749 17.4547 8.4261 17.6569C9.28494 18.2618 10.3097 18.5867 11.3603 18.587C11.5613 18.5864 11.7622 18.5742 11.9619 18.5503V21.9609C11.9619 22.0886 12.0126 22.211 12.1029 22.3013C12.1931 22.3915 12.3155 22.4423 12.4432 22.4423C12.5708 22.4423 12.6933 22.3915 12.7835 22.3013C12.8738 22.211 12.9245 22.0886 12.9245 21.9609V18.5461C13.1242 18.5699 13.325 18.5822 13.5261 18.5828C14.5766 18.5824 15.6014 18.2576 16.4603 17.6527C16.749 17.4505 17.0163 17.2192 17.258 16.9626C18.0545 17.066 18.8637 17.0077 19.6371 16.7912C20.4105 16.5746 21.1322 16.2043 21.7592 15.7023C22.3862 15.2004 22.9055 14.5771 23.286 13.8698C23.6665 13.1626 23.9005 12.3858 23.9738 11.586C24.0472 10.7862 23.9585 9.97981 23.713 9.2151C23.4675 8.45039 23.0702 7.74305 22.545 7.13542C22.0198 6.52779 21.3775 6.03234 20.6563 5.67872C19.9352 5.32509 19.1502 5.12056 18.3482 5.07736L18.3488 5.07977ZM8.97658 16.8663C8.20865 16.3322 7.64433 15.5537 7.37565 14.6577C8.30949 14.6035 9.23416 14.8673 9.99877 15.4062C10.2739 15.5989 10.525 15.8239 10.7466 16.0764C10.8863 16.6257 11.1172 17.1477 11.4294 17.6208C10.5526 17.6352 9.69376 17.3711 8.97658 16.8663ZM12.4534 17.3651H12.4299C11.8579 16.6298 11.5482 15.7243 11.5503 14.7926C11.5524 13.861 11.866 12.9569 12.4414 12.2241C13.0169 12.9568 13.3307 13.8609 13.3329 14.7925C13.3351 15.7242 13.0255 16.6298 12.4534 17.3651ZM15.9068 16.8663C15.1896 17.3711 14.3308 17.6352 13.4539 17.6208C13.7674 17.1463 13.9986 16.6223 14.138 16.071C14.1471 16.0628 14.1557 16.0542 14.1639 16.0451C14.5818 15.5782 15.0992 15.2112 15.678 14.9711C16.2567 14.7309 16.882 14.6239 17.5077 14.6577C17.2395 15.5535 16.6759 16.3319 15.9086 16.8663H15.9068ZM18.0215 16.0517C17.995 16.0517 17.9686 16.0517 17.9427 16.0517C18.2549 15.5196 18.4685 14.9355 18.5732 14.3274C18.5949 14.2022 18.5662 14.0734 18.4932 13.9692C18.4203 13.8651 18.3091 13.794 18.184 13.7715C17.518 13.6503 16.8345 13.6629 16.1734 13.8085C15.5123 13.9541 14.8869 14.23 14.3335 14.6198C14.3197 14.6289 14.3064 14.6391 14.2926 14.6487C14.2572 13.3356 13.7162 12.0868 12.7825 11.1629C12.6923 11.073 12.5702 11.0226 12.4429 11.0226C12.3156 11.0226 12.1935 11.073 12.1033 11.1629C11.1694 12.0868 10.6281 13.3355 10.5926 14.6487L10.5523 14.6192C9.99877 14.2296 9.37328 13.954 8.71222 13.8084C8.05117 13.6629 7.36776 13.6503 6.70181 13.7715C6.57665 13.794 6.46547 13.8651 6.39253 13.9692C6.3196 14.0734 6.29086 14.2022 6.31257 14.3274C6.41726 14.9355 6.63085 15.5196 6.94308 16.0517C6.91661 16.0517 6.89073 16.0517 6.86426 16.0517C6.20187 16.059 5.5446 15.9348 4.93052 15.6863C4.31645 15.4379 3.75776 15.0701 3.28679 14.6042C2.81582 14.1384 2.44193 13.5838 2.18675 12.9724C1.93158 12.3611 1.80019 11.7053 1.80019 11.0428C1.80019 10.3804 1.93158 9.72455 2.18675 9.11324C2.44193 8.50192 2.81582 7.9473 3.28679 7.48146C3.75776 7.01562 4.31645 6.64782 4.93052 6.39936C5.5446 6.15089 6.20187 6.0267 6.86426 6.03396H6.96053H6.96955C7.09118 6.0343 7.20842 5.98858 7.29771 5.90598C7.38701 5.82338 7.44173 5.71004 7.45085 5.58875C7.64518 2.99331 9.83933 0.9604 12.4444 0.9604C15.0495 0.9604 17.2448 2.99331 17.4379 5.58875C17.4471 5.71141 17.5029 5.82588 17.5939 5.90868C17.6849 5.99147 17.8041 6.0363 17.9271 6.03396H18.0233C19.3423 6.04841 20.6022 6.5825 21.5298 7.52028C22.4573 8.45805 22.9776 9.72383 22.9776 11.0428C22.9776 12.3619 22.4573 13.6276 21.5298 14.5654C20.6022 15.5032 19.3423 16.0373 18.0233 16.0517H18.0215Z" fill="#3090F6"/>
</svg>
