<svg width="23" height="23" viewBox="0 0 23 23" fill="none" xmlns="http://www.w3.org/2000/svg">
<circle cx="11.5" cy="11.5" r="11.5" fill="#FF6716"/>
<path d="M11.5488 12.7859C10.9791 13.3582 10.2955 14.045 9.72587 14.6173C8.92834 15.4186 8.24474 16.1054 7.44722 16.9066C6.99149 17.3645 6.42174 17.3645 6.07994 16.9066C5.73815 16.5632 5.73815 15.8765 6.07994 15.5331C7.3332 14.274 8.58651 13.0148 9.83977 11.7557C9.9537 11.6412 9.95365 11.6413 10.0676 11.5268C9.95365 11.4124 9.9537 11.4123 9.83977 11.2978C8.58651 10.0387 7.3332 8.77969 6.07994 7.52058C5.51028 6.94826 5.73823 6.14698 6.30789 5.91805C6.64969 5.80359 7.10542 5.80353 7.44722 6.14692C8.70047 7.40603 9.95365 8.6652 11.2069 9.92431C11.3208 10.0388 11.3209 10.0387 11.4349 10.1532C11.5488 10.0387 11.5487 10.0388 11.6627 9.92431C12.9159 8.6652 14.1692 7.40606 15.5364 6.03249C16.1061 5.57463 16.9036 5.68918 17.1315 6.2615C17.2454 6.71936 17.2453 7.06275 16.9035 7.40614C15.6503 8.66525 14.3971 9.92428 13.1438 11.1834C13.0299 11.2979 13.0298 11.2979 12.9159 11.4124C13.0298 11.5269 13.0299 11.5268 13.1438 11.6413C14.3971 12.9004 15.6503 14.1595 16.9035 15.4187C17.2453 15.762 17.3593 16.2199 17.1315 16.5633C16.9036 16.9067 16.5618 17.1355 16.1061 17.021C15.8782 16.9066 15.6503 16.7922 15.5364 16.6777C14.2831 15.4186 13.0298 14.1595 11.7766 12.9004C11.6626 13.0148 11.5488 12.9004 11.5488 12.7859Z" fill="white"/>
</svg>
